<?xml version="1.0" encoding="UTF-8"?>
<svg id="Layer_1" xmlns="http://www.w3.org/2000/svg" version="1.1" viewBox="0 0 20 15">
  <!-- Generator: Adobe Illustrator 29.5.1, SVG Export Plug-In . SVG Version: 2.1.0 Build 141)  -->
  <defs>
    <style>
      .st0 {
        fill: #231f20;
      }
    </style>
  </defs>
  <path class="st0" d="M.53,0h18.94c.51,0,.72.66.31.96l-8.15,5.98c-.97.71-2.29.71-3.25,0L.22.95C-.19.65.02,0,.53,0ZM2.11,15h15.77c1.17,0,2.11-.94,2.11-2.11V3.48c0-.35-.39-.54-.67-.34l-6.81,5c-.75.55-1.63.83-2.51.83s-1.76-.28-2.51-.83L.67,3.13C.39,2.93,0,3.13,0,3.47v9.42C0,14.06.95,15,2.11,15Z"/>
</svg>