<?xml version="1.0" encoding="UTF-8"?>
<svg id="Calque_1" data-name="Calque 1" xmlns="http://www.w3.org/2000/svg" viewBox="0 0 64.847889368046708 28.346456692914217">
  <path d="M3.15558101611623,11.036176645480737c-.683084276734917-.320484653146195-1.222361337315306-.7601238568177-1.616803987340063-1.317890416617956-.394442650024757-.556739365400063-.618371029466289-1.1935998940844-.670757943921672-1.908527197256262h2.413906842599317c.104773828911675.598854335847136.357463651583203,1.060064621944548.757042273614388,1.380549275088924.40060581643047.320484653146195.952209209824105.480726979716565,1.65686456898402.480726979716565.389306678018329,0,.739579968794715-.060604469665122,1.049792677928963-.180786214596083.310212709133339-.121208939328426.551603393394544-.292750404312756.725199247180171-.513597200551885.173595853788356-.22084679623913.260907377880358-.472509424505915.260907377880358-.757042273613479,0-.357463651584112-.144834410555632-.649186861499402-.434503231665985-.875169629742231-.288641626710159-.225982768242829-.765259828823218-.407796177240016-1.427800217537879-.544413032584998l-1.088826065171816-.23728190665679c-1.220306948514008-.261934572281461-2.119102049479807-.659458805512259-2.697412497303048-1.190518310882908-.578310447822332-.531059505372468-.867979268934505-1.196681477285892-.867979268934505-1.995838721346445,0-.684111471135111.186949381000886-1.28091141818004.559820948603374-1.791427035530432.373898762001772-.509488422945651.886468768154373-.90187668416911,1.538737212856176-1.175110394862713s1.388766830294117-.409850566044042,2.208467962375835-.409850566044042c.820728326483732,0,1.538737212857086.136616855350439,2.154026659120063.409850566044042.615289446261158.273233710693603,1.099098009181944.636860528684338,1.451425688761447,1.088826065169997s.570092892613502.952209209825014.655350027905115,1.49867663121222h-2.256746099228621c-.146888799357839-.357463651584112-.392388261223459-.649186861495764-.733416802389002-.875169629738593-.342055735569375-.227009962643933-.786830911248217-.340001346767167-1.333298332636332-.340001346767167-.368762789995344,0-.69746499834946.055468497659604-.986106625060529.166405492978811-.289668821112173.109909800919922-.512570006151691.268097738686265-.670757943923491.472509424507734-.158187937769071.205438880222573-.236254712252958.444775175677933-.236254712252958.718008886371535,0,.336919763563856.120181744929141.602963113451551.362599623589631.797102855258345.241390684259386.195166936211535.647132472696285.355409262785543,1.215170976508489.480726979720203l.962481153835142.220846796235492c1.40931071831892.326647819554637,2.426233175411653.749851912807571,3.052821760087681,1.270639474170821.625561390273106.520787561357793.938855682608846,1.217225365307968.938855682608846,2.090340606247992,0,.673839527125892-.190030964203288,1.277829834976728-.568038503810385,1.815052506755819-.379034734008201.536195477374349-.913175822582161.954263598627222-1.601396071323506,1.254204363746794-.689247443143358.298913570723016-1.486350298400794.448883953285076-2.390281371373021.448883953285076-.904958267373331,0-1.698979539429274-.160242326574007-2.383091010566204-.480726979718384Z" style="fill: #1d1d1b;"/>
  <path d="M13.387464445529986,10.988925703029054c-.520787561358702-.352327679575865-.922420572191186-.849489769713728-1.206953421298749-1.491486270405403-.283505654704641-.640969306290572-.426285676457155-1.392875607896713-.426285676457155-2.255718904827518,0-.831000270494769.144834410553813-1.57263462809351.434503231665985-2.224903072794405.288641626711069-.652268444702713.699519387153487-1.161756867648364,1.230578892525045-1.530519657646437.531059505371559-.367735595596969,1.138131396425706-.551603393396363,1.822242867562636-.551603393396363.568038503810385,0,1.065200593946429.12531771693466,1.49045907600339.378007539608006.426285676458974.252689822673346.765259828824128.591663975035772,1.017949651495655,1.017949651497474.252689822673346.426285676456246.421149704454365.90187668416911.505379645343965,1.42780021753606h-2.051307219007867c-.063686052867524-.305076737129639-.173595853785628-.557766559802985-.331783791557427-.757042273615298-.157160743369786-.200302908213416-.367735595596059-.29994076512412-.630697362277715-.29994076512412-.262961766683475,0-.486890146125916.097583468106677-.670757943923491.29172320991529-.183867797798484.195166936209716-.320484653145286.478672590916176-.409850566041314.851544158516845-.089365912896028.373898762000863-.134562466543684.839217825705418-.134562466543684,1.396984385502947,0,.546467421389025.045196553647656,1.006650513083514.134562466543684,1.380549275085286.089365912896028.372871567604307.225982768242829.65432283350674.409850566041314.844353797709118.183867797797575.189003769804913.407796177240016.28350565470646.670757943923491.28350565470646.262961766681656,0,.473536618907929-.099637856905247.630697362277715-.29994076512412.1581879377718-.199275713812312.268097738689903-.451965536485659.331783791557427-.757042273615298h2.051307219007867c-.0842299408896.525923533368768-.255771405875748,1.001514541079814-.513597200553704,1.427800217541517-.257825794675227.426285676456246-.6019359190459.765259828822309-1.033357567511302,1.017949651492017-.431421648463584.252689822673346-.935774099406444.378007539608006-1.514084547228777.378007539608006-.68411147113693,0-1.286047390185558-.175650242590564-1.806834951546989-.527977922170066Z" style="fill: #1d1d1b;"/>
  <path d="M20.755529884662792,10.980708147819314c-.531059505371559-.357463651582293-.940910071412873-.859761713720218-1.230578892525045-1.50689418642105-.288641626710159-.646105278294272-.433476037266701-1.390821219096324-.433476037266701-2.232093433602131,0-.820728326483732.155106354566669-1.559281100877342.465319063701827-2.216685517585574.310212709132429-.657404416708232.731362413587703-1.169974422857194,1.262421918959262-1.538737212855267.531059505371559-.367735595596969,1.12272348040733-.551603393396363,1.774991925109134-.551603393396363.683084276735826,0,1.282965806982247.189003769804913,1.798617396337249.568038503813113.514624394953898.378007539605278.915230211384369.937828488210471,1.198735866090828,1.679462845809212.284532849105744.741634357596922.426285676458974,1.638375069762333.426285676458974,2.690222136492594h-5.69579295413223v-1.49867663121222h4.354277066287068l-.630697362279534.552630587793828c-.02157108242227-.736498385589584-.144834410554722-1.3127544446088-.370817178799371-1.727740982656542-.225982768242829-.416013732448846-.565984115009087-.623507001473627-1.017949651494746-.623507001473627-.273233710694512,0-.515651589355912.097583468105768-.725199247180171.29172320991529-.210574852226273.195166936209716-.370817178799371.458128702890463-.481754174119487.788885300049515-.109909800918103.331783791558337-.165378298578617.702600970354979-.165378298578617,1.112451536399021v.947073237814948c0,.441693592479169.060604469666032.822782715288668.181813408997186,1.143267368433044.120181744928232.321511847547299.285560043506848.565984115009996.496134895734031.733416802388092.210574852226273.168459881784656.452992730887672.252689822673346.726226441581275.252689822673346.252689822671528,0,.44682956448014-.06265885846733.583446419828761-.189003769803094.136616855346801-.126344911337583.247553850665099-.294804793116782.331783791557427-.505379645343055h2.177652130342722c-.200302908216145.726226441582185-.579337642224345,1.3024825006014-1.136077007622589,1.72774098266018-.557766559800257.426285676458065-1.236742058930759.638914917486545-2.03589930299222.638914917486545-.704655359157186,0-1.323026388623475-.178731825792056-1.854085893995034-.536195477379806ZM19.249662892641027.094501884903366h2.602910612402411l1.704115511434793,2.208467962376744h-1.893119281238796L19.249662892641027.094501884903366Z" style="fill: #1d1d1b;"/>
  <path d="M26.964920039346907,3.170949116214615h2.113966077476107v1.293237750993285l-.062658858468239-.12531771693466c.157160743369786-.399578622031186.420122510051442-.734443996791015.788885300049515-1.002541735480918.367735595596059-.268097738689903.80942918807159-.401633010833393,1.325080777426592-.401633010833393.462237480496697,0,.859761713723856.109909800918103,1.190518310881998.330756597157233.331783791556518.22084679623913.581392031025644.544413032584998.749851912806662.970698709046701.168459881781928.425258482055142.252689822671528.938855682610665.252689822671528,1.537710018454163v5.506789184328227h-2.177652130343631v-5.443103131459793c0-.37903473400911-.06265885846733-.66767636071927-.189003769804003-.867979268935414-.126344911336673-.199275713811403-.32151184754639-.29994076512321-.583446419828761-.29994076512321-.221873990638414,0-.426285676457155.063686052868434-.616316640663172.189003769804913-.189003769802184.126344911335764-.338974152364244.31843026434035-.448883953283257.576256059018306-.110936995318298.257825794677956-.166405492977901.576256059023763-.166405492977901.954263598628131v4.891499738067068h-2.176624935943437V3.170949116214615Z" style="fill: #1d1d1b;"/>
  <path d="M35.902538523368094,10.980708147819314c-.531059505371559-.357463651582293-.940910071411963-.859761713720218-1.230578892524136-1.50689418642105-.288641626711069-.646105278294272-.433476037266701-1.390821219096324-.433476037266701-2.232093433602131,0-.820728326483732.15510635456576-1.559281100877342.465319063700917-2.216685517585574.310212709132429-.657404416708232.731362413585884-1.169974422857194,1.262421918957443-1.538737212855267.531059505371559-.367735595596969,1.122723480409149-.551603393396363,1.774991925111863-.551603393396363.683084276734917,0,1.282965806979519.189003769804913,1.798617396334521.568038503813113.514624394955717.378007539605278.915230211386188.937828488210471,1.198735866090828,1.679462845809212.284532849107563.741634357596922.426285676458974,1.638375069762333.426285676458974,2.690222136492594h-5.695792954130411v-1.49867663121222h4.354277066287068l-.630697362279534.552630587793828c-.02157108242227-.736498385589584-.144834410556541-1.3127544446088-.370817178799371-1.727740982656542-.225982768242829-.416013732448846-.565984115009087-.623507001473627-1.017949651494746-.623507001473627-.273233710694512,0-.515651589355002.097583468105768-.725199247180171.29172320991529-.210574852228092.195166936209716-.37081717880119.458128702890463-.481754174119487.788885300049515-.109909800918103.331783791558337-.165378298578617.702600970354979-.165378298578617,1.112451536399021v.947073237814948c0,.441693592479169.060604469666032.822782715288668.181813408997186,1.143267368433044.120181744929141.321511847547299.285560043507758.565984115009996.496134895734031.733416802388092.210574852226273.168459881784656.452992730887672.252689822673346.726226441581275.252689822673346.252689822671528,0,.44682956448014-.06265885846733.583446419826942-.189003769803094s.247553850667828-.294804793116782.331783791557427-.505379645343055h2.17765213034545c-.200302908216145.726226441582185-.579337642224345,1.3024825006014-1.136077007623499,1.72774098266018-.557766559799347.426285676458065-1.236742058932577.638914917486545-2.035899302991311.638914917486545-.704655359159915,0-1.323026388624385-.178731825792056-1.854085893995943-.536195477379806Z" style="fill: #1d1d1b;"/>
  <path d="M43.499668313947041,11.177929472833057c-.536195477377987-.225982768242829-.954263598628131-.541331449379868-1.254204363750432-.946046043418391-.299940765125029-.405741788435989-.475591007713774-.871060852135997-.527977922169157-1.396984385502947h2.287561931261735c.042114970445255.347191707574893.186949381000886.628642973479145.433476037266701.844353797709118.247553850667828.215710824229973.581392031025644.323566236349507,1.002541735479099.323566236349507.357463651585931,0,.640969306289662-.081148357689017.851544158516845-.244472267464516.210574852228092-.163323909775499.315348681140676-.387252289214302.315348681140676-.670757943920762,0-.273233710693603-.091420301699145-.481754174121306-.275288099497629-.623507001469989-.184894992197769-.141752827354139-.492026118129615-.265016155486592-.923447766593199-.370817178802099l-.867979268934505-.22084679623913c-.873115240940933-.220846796233673-1.520247713637218-.520787561357793-1.94037022368866-.898795100967618-.421149704454365-.379034734005472-.630697362279534-.873115240938205-.630697362279534-1.483268715195663,0-.505379645343055.138671244149918-.949127626619884.418068121250144-1.333298332634513.278369682700031-.384170706014629.66767636071836-.684111471136021,1.166892839655702-.899822295368722.499216478939161-.214683629828869,1.070336565951948-.322539041948403,1.712333066644533-.322539041948403.662540388711932,0,1.230578892524136.101692245709273,1.704115511434793.307131125931846.472509424508644.205438880222573.841272214503988.481754174121306,1.104233981188372.827918687291458.262961766683475.347191707574893.426285676458974.736498385593222.488944534926304,1.167920034058625h-2.130401187894677c-.072930802477458-.241390684259386-.215710824231792-.43347603726761-.425258482056961-.576256059022853-.210574852226273-.141752827350501-.473536618910657-.212629241026661-.788885300049515-.212629241026661-.336919763562946,0-.608099085453432.073957996877652-.812510771274901.220846796235492-.205438880219845.147915993758943-.308158320331131.352327679580412-.308158320331131.615289446264796,0,.210574852226273.0790939688859.381089122809499.237281906654971.512570006150781.157160743369786.132508077742386.42525848205787.25063543386932.804293216066071.355409262783724l.709791331165434.189003769801275c.967617125840661.262961766686203,1.693843567421936.576256059022853,2.177652130342722.938855682610665.483808562920785.363626817994373.725199247180171.896740712165411.725199247180171,1.601396071324416,0,.537222671777272-.141752827351411,1.002541735480918-.42525848205787,1.396984385502947-.284532849105744.394442650027486-.682057082332904.699519387155306-1.191545505282193.915230211385278-.510515617349483.214683629834326-1.091907648375127.322539041948403-1.743148898674917.322539041948403-.726226441582185,0-1.356923803861719-.112991384123234-1.894146475638991-.338974152366063Z" style="fill: #1d1d1b;"/>
  <path d="M1.388806646214107,27.826696325955709c-.431421648463584-.347191707574893-.770395800827828-.844353797709118-1.017949651494746-1.491486270404494C.124330338453547,25.68807758285584.00003981591999,24.928980920436516.00003981591999,24.054838485097207.00003981591999,23.182750438554649.124330338453547,22.422626581739678.370856994719361,21.775494109044303c.247553850666918-.647132472700832.586528003031162-1.144294562833238,1.017949651494746-1.491486270409951.431421648465403-.346164513170152.925502155396316-.519760366956689,1.483268715198392-.519760366956689.462237480495787,0,.859761713725675.12531771693466,1.191545505282193.378007539608006.330756597155414.252689822669709.591663975036681.594745558237264.780667744840684,1.026167206702667l-.0790939688859.109909800918103v-4.212524238935657h2.177652130343631v11.044394200691386h-2.177652130343631v-1.230578892525955l.0790939688859.109909800918103c-.189003769804003.421149704452546-.447856758883972.752933496012702-.773477384032958.994324180272088-.325620625150805.24241787866049-.72519924718199.362599623587812-1.198735866089919.362599623587812-.557766559802076,0-1.051847066732989-.173595853784718-1.483268715198392-.519760366958508ZM4.165313112404874,26.311584584325828c.200302908214326-.22084679623913.355409262781905-.529005116568442.465319063699098-.923447766595928.110936995320117-.394442650022029.16640549298063-.838190631302496.16640549298063-1.333298332632694,0-.494080506932733-.055468497660513-.937828488209561-.16640549298063-1.332271138237047-.109909800917194-.394442650022029-.265016155484773-.702600970354979-.465319063699098-.923447766590471-.199275713815041-.22084679623913-.436557620471831-.331783791558337-.709791331165434-.331783791558337-.273233710694512,0-.499216478937342.105801023311869-.677948304729398.316375875538142-.17975902019316.210574852229911-.316375875540871.507434034148901-.410877760442418.890577545758788-.094501884902456.384170706014629-.14175282735323.844353797709118-.14175282735323,1.380549275088924,0,.810456382470875.104773828914404,1.44423532795372.315348681140676,1.901336836444898.210574852226273.458128702894101.515651589355002.687193054338422.915230211384369.687193054338422.273233710693603,0,.510515617350393-.110936995316479.709791331165434-.331783791554699Z" style="fill: #1d1d1b;"/>
  <path d="M9.065030405678044,28.054733483002565c-.342055735567556-.194139741809522-.60501750225103-.494080506932733-.788885300049515-.898795100968528-.183867797797575-.404714594033976-.276315293896914-.907012656175539-.276315293896914-1.506894186420141v-5.648542011682366h2.177652130343631v5.364009162572984c0,.389306678018329.065740441670641.689247443144268.197221325012833.899822295370541.131480883341283.210574852226273.344110124370673.315348681140676.638914917487455.315348681140676.199275713814131,0,.381089122811318-.06574044167246.544413032586817-.197221325013743.162296715373486-.131480883341283.293777598716588-.338974152366063.394442650024757-.623507001469989.099637856906156-.28350565470646.149970382560241-.640969306290572.149970382560241-1.072390954755974v-4.686060857844495h2.176624935943437v8.109699796730638h-2.113966077476107v-1.120669091607851l.094501884902456.126344911337583c-.136616855347711.252689822673346-.294804793116782.468400646903319-.473536618910657.647132472695375-.178731825792056.178731825792056-.394442650024757.321511847547299-.646105278294272.426285676458065-.252689822673346.104773828914404-.547494615790129.157160743368877-.883387184951061.157160743368877-.452992730887672,0-.850516964115741-.096556273701935-1.191545505283102-.291723209911652Z" style="fill: #1d1d1b;"/>
  <path d="M21.087313676220219,27.621257445734045c-.751906301610688-.483808562920785-1.338434304640941-1.156620895645574-1.758556814694202-2.019464192572741-.421149704452546-.862843296928986-.631724556678819-1.840732366783413-.631724556678819-2.934694403960748,0-1.13607700762077.231118740248348-2.148890687114545.694383415147058-3.037413844069306.4632646748978-.888523156954761,1.102179592386165-1.577770600099029,1.916744752462364-2.066715135022605.815592354480032-.488944534929033,1.738012926671217-.733416802389911,2.769316105381222-.733416802389911.873115240940933,0,1.638375069765061.165378298579526,2.295779486473293.496134895733121.657404416706413.331783791558337,1.180246366868232.754987884814909,1.56955304488929,1.270639474169002.389306678018329.515651589355912.657404416706413,1.05698303873578.805320410465356,1.625021542546165h-2.366655900147634c-.200302908214326-.420122510051442-.481754174117668-.770395800827828-.844353797707299-1.048765483525131-.362599623592359-.279396877100226-.865924880134116-.418068121252873-1.506894186423779-.418068121252873-.578310447823242,0-1.090880453973114.152024771365177-1.538737212856176.457101508494816-.44682956448014.30507673712782-.794021272054124.75190630160705-1.040547928319029,1.341515887841524-.247553850667828.588582391836098-.370817178799371,1.293237750991466-.370817178799371,2.113966077475197,0,.767314217626335.131480883341283,1.438072161548916.394442650024757,2.011246637366639.262961766681656.573174475817723.622479807068885,1.012813679488318,1.080608509962076,1.317890416617956.457101508492087.30507673712691.975834681050401.457101508492997,1.554145128872733.457101508492997.767314217627245,0,1.385685247091715-.239336295458997,1.854085893995943-.718008886371535.467373452504035-.478672590916176.723144858378873-1.254204363753161.765259828825037-2.326595318507316l.268097738688084.283505654704641h-3.487324991753667v-1.814025312352896h5.206848419205016v6.231988431511127h-2.130401187893767v-1.388766830297754l.0790939688859.1581879377718c-.252689822671528.421149704452546-.633778945482845.770395800827828-1.143267368430315,1.048765483530588-.510515617351302.279396877098407-1.128886646815772.418068121247416-1.854085893997762.418068121247416-.968644320242674,0-1.828406033968349-.241390684259386-2.580312335576309-.725199247180171Z" style="fill: #1d1d1b;"/>
  <path d="M30.624813690486917,20.00050218393153h2.130401187893767v2.161217019925971l-.063686052869343-.07909396888499c.147915993758943-.567011309409281.375953150805799-1.030275984308901.687193054340241-1.387739635893013.310212709132429-.357463651584112.706709747960304-.615289446261158,1.190518310881089-.773477384032958.483808562919876-.157160743368877,1.051847066732989-.210574852226273,1.704115511434793-.157160743368877v2.034872108592026c-.347191707573984-.031843026434217-.657404416708232-.0441693592511-.930638127402744-.039033387241943-.273233710693603.0051359720037-.520787561360521.039033387241943-.741634357597832.101692245705635-.620425418267587.168459881782837-1.075472537958376.515651589354093-1.365141359070549,1.041575122722861-.288641626710159.525923533366949-.433476037266701,1.204899032496542-.433476037266701,2.03589930299313v3.170949116212796h-2.177652130342722v-8.109699796730638Z" style="fill: #1d1d1b;"/>
  <path d="M38.72732312640801,28.054733483002565c-.342055735567556-.194139741809522-.60501750225103-.494080506932733-.788885300049515-.898795100968528s-.276315293896914-.907012656175539-.276315293896914-1.506894186420141v-5.648542011682366h2.17765213034545v5.364009162572984c0,.389306678018329.065740441670641.689247443144268.197221325011014.899822295370541.131480883341283.210574852226273.344110124370673.315348681140676.638914917489274.315348681140676.199275713812312,0,.381089122809499-.06574044167246.544413032584998-.197221325013743.162296715375305-.131480883341283.293777598716588-.338974152366063.394442650023848-.623507001469989.099637856908885-.28350565470646.14997038256206-.640969306290572.14997038256206-1.072390954755974v-4.686060857844495h2.176624935942527v8.109699796730638h-2.113966077474288v-1.120669091607851l.094501884899728.126344911337583c-.136616855346801.252689822673346-.294804793115873.468400646903319-.473536618907929.647132472695375s-.394442650024757.321511847547299-.646105278296091.426285676458065c-.252689822671528.104773828914404-.547494615790129.157160743368877-.883387184951971.157160743368877-.452992730887672,0-.850516964114831-.096556273701935-1.191545505282193-.291723209911652ZM38.119224040953668,17.081215695987339h2.130401187893767v2.051307219009686h-2.130401187893767v-2.051307219009686ZM41.353859210035807,17.081215695987339h2.130401187892858v2.051307219009686h-2.130401187892858v-2.051307219009686Z" style="fill: #1d1d1b;"/>
  <path d="M51.514866225773403,21.736460721802359h-6.389149174877275v-1.735958537870829h6.389149174877275v1.735958537870829ZM49.259147320945885,17.602003257350589v7.668006204251469c0,.410877760446056.099637856906156.709791331165434.299940765122301.899822295369631.199275713815041.189003769804913.514624394953898.28350565470646.946046043419301.28350565470646.326647819550999,0,.68924744314063-.036978998441555,1.088826065170906-.109909800918103v1.640429458566359c-.168459881781018.042114970443436-.386225094815018.08731152409382-.654322833503102.134562466544594-.268097738689903.047250942448045-.539277060580389.070876413674341-.812510771274901.070876413674341-.90495826737515,0-1.628103125752205-.197221325010105-2.16943457513571-.591663975035772-.5423586437837-.394442650023848-.812510771274901-1.038493539517731-.812510771274901-1.933179862879115v-8.062448854279864h2.113966077476107Z" style="fill: #1d1d1b;"/>
  <path d="M54.892281416609876,17.065807779970783h2.176624935942527v11.044394200691386h-2.176624935942527v-11.044394200691386Z" style="fill: #1d1d1b;"/>
  <path d="M62.244938939724307,16.703208156382061h2.602910612402411v2.287561931262644h-2.602910612402411v-2.287561931262644ZM62.481193651979083,20.00050218393153h2.145809103909414v8.109699796730638h-2.145809103909414v-8.109699796730638Z" style="fill: #1d1d1b;"/>
</svg>